<svg width="138" height="92" viewBox="0 0 138 92" fill="none" xmlns="http://www.w3.org/2000/svg">
<path d="M117.245 37.2462C116.028 16.5462 98.9644 0 78.3955 0C65.9065 0 53.8131 6.1249 46.3197 16.1184C46.1472 16.0287 45.9655 15.9666 45.7907 15.8838C45.3353 15.663 44.873 15.4537 44.4015 15.2651C44.1393 15.1616 43.8771 15.0673 43.6126 14.9753C43.1457 14.812 42.6719 14.6671 42.1889 14.536C41.9244 14.4647 41.6622 14.3911 41.3954 14.3313C40.8779 14.214 40.3489 14.1243 39.8153 14.0438C39.583 14.0093 39.3553 13.9633 39.1207 13.938C38.3571 13.8529 37.5843 13.8 36.8 13.8C25.3851 13.8 16.1 23.0851 16.1 34.5C16.1 34.7921 16.1184 35.0796 16.1368 35.3671V35.3763C6.5711 40.5927 0 51.5177 0 62.4542C0 78.7451 13.2526 92 29.5435 92H85.9119C86.1511 92 86.388 91.9862 86.6272 91.9678L86.7698 91.9494L87.078 91.9678C87.3126 91.9862 87.5472 92 87.7887 92H110.336C125.589 92 138 79.5892 138 64.3356C138 51.7109 129.198 40.388 117.245 37.2462ZM110.336 87.4H87.7887C87.653 87.4 87.5219 87.3885 87.3885 87.3793L86.7652 87.354L86.3098 87.3793C86.1787 87.3885 86.0453 87.4 85.9119 87.4H29.5435C15.7895 87.4 4.6 76.2105 4.6 62.4542C4.6 52.9 10.8215 42.9824 19.3959 38.8723L20.7 38.249V36.8C20.7 36.5079 20.7184 36.2112 20.7345 35.9122L20.7552 35.5442L20.7276 35.0612C20.7138 34.8749 20.7 34.6886 20.7 34.5C20.7 25.6243 27.9243 18.4 36.8 18.4C37.5107 18.4 38.2122 18.4621 38.9091 18.5541C39.0885 18.5771 39.2679 18.607 39.445 18.6369C40.0591 18.7381 40.664 18.8715 41.2597 19.044C41.3402 19.067 41.423 19.0831 41.5035 19.1061C42.159 19.3062 42.7984 19.5592 43.424 19.8444C43.5873 19.918 43.746 19.9985 43.907 20.0767C44.459 20.3504 44.9995 20.6494 45.5216 20.9875C49.9537 23.8579 52.9 28.8374 52.9 34.5C52.9 35.7719 53.9281 36.8 55.2 36.8C56.4719 36.8 57.5 35.7719 57.5 34.5C57.5 28.1658 54.6342 22.4963 50.14 18.6967C56.7341 10.0717 67.5924 4.6 78.3955 4.6C96.209 4.6 111.003 18.7105 112.546 36.5424C110.195 36.3768 106.676 36.2917 103.155 36.8276C101.899 37.0185 101.037 38.1915 101.228 39.4473C101.4 40.5858 102.38 41.4023 103.498 41.4023C103.613 41.4023 103.73 41.3931 103.845 41.3747C108.967 40.5996 114.305 41.3264 114.618 41.3701C125.327 43.4056 133.4 53.2703 133.4 64.3356C133.4 77.0523 123.052 87.4 110.336 87.4Z" fill="#158A8C"/>
<path d="M36.5 50.5L55 69L92 32" stroke="#158A8C" stroke-width="6"/>
</svg>
