<svg width="42" height="42" viewBox="0 0 42 42" fill="none" xmlns="http://www.w3.org/2000/svg">
<path d="M6.0001 0.000100007C2.69847 0.000100007 0.000100007 2.69847 0.000100007 6.0001V11.0001C-0.00177404 11.1326 0.0227073 11.2642 0.072121 11.3871C0.121535 11.5101 0.194895 11.622 0.28794 11.7164C0.380984 11.8108 0.491857 11.8857 0.614114 11.9369C0.736371 11.988 0.867575 12.0143 1.0001 12.0143C1.13263 12.0143 1.26383 11.988 1.38609 11.9369C1.50834 11.8857 1.61922 11.8108 1.71226 11.7164C1.8053 11.622 1.87867 11.5101 1.92808 11.3871C1.97749 11.2642 2.00197 11.1326 2.0001 11.0001V6.0001C2.0001 3.77973 3.77973 2.0001 6.0001 2.0001H11.0001C11.1326 2.00197 11.2642 1.97749 11.3871 1.92808C11.5101 1.87867 11.622 1.8053 11.7164 1.71226C11.8108 1.61922 11.8857 1.50834 11.9369 1.38609C11.988 1.26383 12.0143 1.13263 12.0143 1.0001C12.0143 0.867575 11.988 0.736371 11.9369 0.614114C11.8857 0.491857 11.8108 0.380984 11.7164 0.28794C11.622 0.194895 11.5101 0.121535 11.3871 0.072121C11.2642 0.0227073 11.1326 -0.00177404 11.0001 0.000100007H6.0001ZM31.0001 0.000100007C30.8676 -0.00177404 30.736 0.0227073 30.6131 0.072121C30.4901 0.121535 30.3782 0.194895 30.2838 0.28794C30.1894 0.380984 30.1145 0.491857 30.0633 0.614114C30.0122 0.736371 29.9859 0.867575 29.9859 1.0001C29.9859 1.13263 30.0122 1.26383 30.0633 1.38609C30.1145 1.50834 30.1894 1.61922 30.2838 1.71226C30.3782 1.8053 30.4901 1.87867 30.6131 1.92808C30.736 1.97749 30.8676 2.00197 31.0001 2.0001H36.0001C38.2205 2.0001 40.0001 3.77973 40.0001 6.0001V11.0001C39.9982 11.1326 40.0227 11.2642 40.0721 11.3871C40.1215 11.5101 40.1949 11.622 40.2879 11.7164C40.381 11.8108 40.4919 11.8857 40.6141 11.9369C40.7364 11.988 40.8676 12.0143 41.0001 12.0143C41.1326 12.0143 41.2638 11.988 41.3861 11.9369C41.5083 11.8857 41.6192 11.8108 41.7123 11.7164C41.8053 11.622 41.8787 11.5101 41.9281 11.3871C41.9775 11.2642 42.002 11.1326 42.0001 11.0001V6.0001C42.0001 2.69847 39.3017 0.000100007 36.0001 0.000100007H31.0001ZM11.9845 13.9864C11.7196 13.9906 11.4672 14.0996 11.2826 14.2897C11.0981 14.4797 10.9965 14.7352 11.0001 15.0001V18.0001C10.9982 18.1326 11.0227 18.2642 11.0721 18.3871C11.1215 18.5101 11.1949 18.622 11.2879 18.7164C11.381 18.8108 11.4919 18.8857 11.6141 18.9369C11.7364 18.988 11.8676 19.0143 12.0001 19.0143C12.1326 19.0143 12.2638 18.988 12.3861 18.9369C12.5083 18.8857 12.6192 18.8108 12.7123 18.7164C12.8053 18.622 12.8787 18.5101 12.9281 18.3871C12.9775 18.2642 13.002 18.1326 13.0001 18.0001V15.0001C13.0019 14.8663 12.9769 14.7335 12.9265 14.6096C12.8761 14.4856 12.8013 14.3731 12.7066 14.2785C12.6119 14.184 12.4992 14.1095 12.3751 14.0593C12.2511 14.0091 12.1183 13.9843 11.9845 13.9864ZM21.9845 13.9864C21.7196 13.9906 21.4672 14.0996 21.2826 14.2897C21.0981 14.4797 20.9965 14.7352 21.0001 15.0001V23.0001C21.0001 23.5651 20.5651 24.0001 20.0001 24.0001H19.0001C18.8676 23.9982 18.736 24.0227 18.6131 24.0721C18.4901 24.1215 18.3782 24.1949 18.2838 24.2879C18.1894 24.381 18.1145 24.4919 18.0633 24.6141C18.0122 24.7364 17.9859 24.8676 17.9859 25.0001C17.9859 25.1326 18.0122 25.2638 18.0633 25.3861C18.1145 25.5083 18.1894 25.6192 18.2838 25.7123C18.3782 25.8053 18.4901 25.8787 18.6131 25.9281C18.736 25.9775 18.8676 26.002 19.0001 26.0001H20.0001C21.6451 26.0001 23.0001 24.6451 23.0001 23.0001V15.0001C23.0019 14.8663 22.9769 14.7335 22.9265 14.6096C22.8761 14.4856 22.8013 14.3731 22.7066 14.2785C22.6119 14.184 22.4992 14.1095 22.3751 14.0593C22.2511 14.0091 22.1183 13.9843 21.9845 13.9864ZM29.9845 13.9864C29.7196 13.9906 29.4672 14.0996 29.2826 14.2897C29.0981 14.4797 28.9965 14.7352 29.0001 15.0001V18.0001C28.9982 18.1326 29.0227 18.2642 29.0721 18.3871C29.1215 18.5101 29.1949 18.622 29.2879 18.7164C29.381 18.8108 29.4919 18.8857 29.6141 18.9369C29.7364 18.988 29.8676 19.0143 30.0001 19.0143C30.1326 19.0143 30.2638 18.988 30.3861 18.9369C30.5083 18.8857 30.6192 18.8108 30.7123 18.7164C30.8053 18.622 30.8787 18.5101 30.9281 18.3871C30.9775 18.2642 31.002 18.1326 31.0001 18.0001V15.0001C31.0019 14.8663 30.9769 14.7335 30.9265 14.6096C30.8761 14.4856 30.8013 14.3731 30.7066 14.2785C30.6119 14.184 30.4992 14.1095 30.3751 14.0593C30.2511 14.0091 30.1183 13.9843 29.9845 13.9864ZM0.984475 28.9864C0.7196 28.9906 0.467188 29.0996 0.282637 29.2897C0.0980852 29.4797 -0.00352731 29.7352 0.000100007 30.0001V36.0001C0.000100007 39.3017 2.69847 42.0001 6.0001 42.0001H11.0001C11.1326 42.002 11.2642 41.9775 11.3871 41.9281C11.5101 41.8787 11.622 41.8053 11.7164 41.7123C11.8108 41.6192 11.8857 41.5083 11.9369 41.3861C11.988 41.2638 12.0143 41.1326 12.0143 41.0001C12.0143 40.8676 11.988 40.7364 11.9369 40.6141C11.8857 40.4919 11.8108 40.381 11.7164 40.2879C11.622 40.1949 11.5101 40.1215 11.3871 40.0721C11.2642 40.0227 11.1326 39.9982 11.0001 40.0001H6.0001C3.77973 40.0001 2.0001 38.2205 2.0001 36.0001V30.0001C2.00193 29.8663 1.9769 29.7335 1.92648 29.6096C1.87607 29.4856 1.80129 29.3731 1.70659 29.2785C1.61189 29.184 1.49918 29.1095 1.37514 29.0593C1.25111 29.0091 1.11826 28.9843 0.984475 28.9864ZM26.9903 28.9864C26.7266 28.9927 26.4759 29.1029 26.2931 29.2931C26.2931 29.2931 25.9336 29.6652 25.0528 30.1056C24.1721 30.5459 22.8334 31.0001 21.0001 31.0001C19.1668 31.0001 17.8281 30.5459 16.9474 30.1056C16.0666 29.6652 15.7071 29.2931 15.7071 29.2931C15.6139 29.1973 15.5025 29.1211 15.3794 29.0691C15.2563 29.0171 15.124 28.9903 14.9903 28.9903C14.7914 28.9904 14.597 29.0498 14.432 29.1609C14.267 29.272 14.1389 29.4298 14.064 29.6141C13.9891 29.7984 13.971 30.0009 14.0118 30.1956C14.0526 30.3903 14.1505 30.5684 14.2931 30.7071C14.2931 30.7071 14.9336 31.335 16.0528 31.8946C17.1721 32.4543 18.8334 33.0001 21.0001 33.0001C23.1668 33.0001 24.8281 32.4543 25.9474 31.8946C27.0666 31.335 27.7071 30.7071 27.7071 30.7071C27.8524 30.5675 27.952 30.3872 27.9931 30.19C28.0341 29.9927 28.0146 29.7877 27.9371 29.6017C27.8597 29.4157 27.7278 29.2574 27.5589 29.1477C27.3899 29.0379 27.1918 28.9817 26.9903 28.9864ZM40.9845 28.9864C40.7196 28.9906 40.4672 29.0996 40.2826 29.2897C40.0981 29.4797 39.9965 29.7352 40.0001 30.0001V36.0001C40.0001 38.2205 38.2205 40.0001 36.0001 40.0001H31.0001C30.8676 39.9982 30.736 40.0227 30.6131 40.0721C30.4901 40.1215 30.3782 40.1949 30.2838 40.2879C30.1894 40.381 30.1145 40.4919 30.0633 40.6141C30.0122 40.7364 29.9859 40.8676 29.9859 41.0001C29.9859 41.1326 30.0122 41.2638 30.0633 41.3861C30.1145 41.5083 30.1894 41.6192 30.2838 41.7123C30.3782 41.8053 30.4901 41.8787 30.6131 41.9281C30.736 41.9775 30.8676 42.002 31.0001 42.0001H36.0001C39.3017 42.0001 42.0001 39.3017 42.0001 36.0001V30.0001C42.0019 29.8663 41.9769 29.7335 41.9265 29.6096C41.8761 29.4856 41.8013 29.3731 41.7066 29.2785C41.6119 29.184 41.4992 29.1095 41.3751 29.0593C41.2511 29.0091 41.1183 28.9843 40.9845 28.9864Z" fill="black"/>
</svg>
