<svg width="77" height="77" viewBox="0 0 77 77" fill="none" xmlns="http://www.w3.org/2000/svg">
<g clip-path="url(#clip0)">
<path d="M54.7422 25.8765C57.4 25.8765 59.5547 23.7219 59.5547 21.0641C59.5547 18.4062 57.4 16.2516 54.7422 16.2516C52.0843 16.2516 49.9297 18.4062 49.9297 21.0641C49.9297 23.7219 52.0843 25.8765 54.7422 25.8765Z" fill="white"/>
<path d="M76.1693 24.9581C74.5631 20.8684 71.6178 14.9676 66.7075 10.0805C61.8145 5.21027 55.9762 2.34925 51.9401 0.806552C47.509 -0.88699 42.4738 0.180479 39.1125 3.52591L27.3012 15.2819C23.8 18.7666 22.7909 24.1286 24.79 28.6245C25.4099 30.0189 26.0841 31.3828 26.8045 32.7005L0.880985 58.6239C0.316872 59.188 0 59.953 0 60.7508V73.9851C0 75.6464 1.34659 76.993 3.0078 76.993H16.2421C17.9033 76.993 19.2499 75.6464 19.2499 73.9851V68.5711L24.664 68.571C26.3252 68.571 27.6718 67.2244 27.6718 65.5632V60.1493H33.0858C34.747 60.1493 36.0936 58.8027 36.0936 57.1415C36.0936 55.4803 34.747 54.1337 33.0858 54.1337H24.664C23.0028 54.1337 21.6562 55.4803 21.6562 57.1415V62.5554L16.2421 62.5555C14.5809 62.5555 13.2343 63.9021 13.2343 65.5633V70.9773H6.0156V61.9967L32.688 35.3244C33.668 34.3444 33.8516 32.822 33.1329 31.6373C32.0905 29.9192 31.133 28.0832 30.2871 26.1804C29.2946 23.9484 29.8002 21.2822 31.5452 19.5453L43.3564 7.78946C45.0427 6.11126 47.569 5.57602 49.7928 6.42573C53.2851 7.76059 58.3184 10.2177 62.4641 14.3441C66.6351 18.4954 69.1745 23.6031 70.5701 27.1568C71.441 29.3748 70.9118 31.8946 69.2218 33.5765L57.2679 45.4745C55.5272 47.2068 52.929 47.7134 50.6484 46.7648C48.7674 45.9825 46.9458 45.0531 45.2343 44.0026C43.8187 43.1337 41.9665 43.577 41.0975 44.9928C40.2286 46.4086 40.6718 48.2608 42.0876 49.1297C44.0655 50.3437 46.1685 51.4167 48.3381 52.3191C52.8711 54.2048 58.042 53.1913 61.5115 49.7382L73.4654 37.8404C76.8559 34.4658 77.9172 29.4092 76.1693 24.9581Z" fill="white"/>
</g>
<defs>
<clipPath id="clip0">
<rect width="77" height="77" fill="white"/>
</clipPath>
</defs>
</svg>
