<svg width="17" height="25" viewBox="0 0 17 25" fill="none" xmlns="http://www.w3.org/2000/svg">
<g opacity="0.2">
<path d="M8.4998 12.75C7.56225 12.75 6.7998 13.5124 6.7998 14.45V17C6.7998 17.9375 7.56225 18.7 8.4998 18.7C9.43735 18.7 10.1998 17.9375 10.1998 17V14.45C10.1998 13.5124 9.43735 12.75 8.4998 12.75ZM9.3498 17C9.3498 17.4688 8.96858 17.85 8.4998 17.85C8.03103 17.85 7.6498 17.4688 7.6498 17V14.45C7.6498 13.9812 8.03103 13.6 8.4998 13.6C8.96858 13.6 9.3498 13.9812 9.3498 14.45V17Z" fill="black"/>
<path d="M13.175 9.05845V4.3435C13.175 1.94862 11.0776 0 8.5 0C5.92238 0 3.825 1.94862 3.825 4.3435V9.05845C1.5232 10.5808 0 13.1894 0 16.15C0 20.8369 3.8131 24.65 8.5 24.65C13.1869 24.65 17 20.8369 17 16.15C17 13.1894 15.4768 10.5808 13.175 9.05845ZM4.675 8.56672V4.3435C4.675 2.4174 6.39073 0.85 8.5 0.85C10.6093 0.85 12.325 2.4174 12.325 4.3435V8.56715C12.2451 8.52678 12.1635 8.49107 12.0828 8.45325C11.9157 8.37505 11.7462 8.30195 11.5736 8.23438C11.4627 8.19102 11.3513 8.15022 11.2391 8.11155C11.1286 8.07372 11.019 8.0359 10.9068 8.00275C10.721 7.9475 10.5332 7.90032 10.3441 7.85782C10.2621 7.83955 10.1796 7.82212 10.0967 7.80597C9.87445 7.76305 9.6509 7.7282 9.42565 7.70312C9.37465 7.6976 9.32365 7.6942 9.27265 7.68952C9.01553 7.6653 8.7584 7.65 8.5 7.65C8.2416 7.65 7.98448 7.6653 7.7282 7.6891C7.6772 7.69377 7.62577 7.69718 7.5752 7.7027C7.34995 7.72778 7.1264 7.76262 6.90413 7.80555C6.82125 7.82127 6.7388 7.83913 6.65677 7.8574C6.46765 7.8999 6.2798 7.94707 6.09408 8.00233C5.98188 8.03547 5.8718 8.07372 5.76172 8.11112C5.64952 8.1498 5.53775 8.1906 5.42725 8.23395C5.25428 8.3011 5.08513 8.37462 4.9181 8.45282C4.8365 8.49065 4.7549 8.52635 4.675 8.56672ZM8.5 23.8C4.28188 23.8 0.85 20.3681 0.85 16.15C0.85 13.3718 2.34387 10.9416 4.56577 9.6016C4.95678 9.36615 5.3652 9.16768 5.7868 9.00618C5.8616 8.9777 5.93682 8.94965 6.01248 8.9233C6.1285 8.88293 6.24495 8.84425 6.36268 8.8094C6.50718 8.76732 6.6538 8.72992 6.8017 8.69635C6.90965 8.6717 7.01802 8.65002 7.12682 8.63005C7.28365 8.60157 7.44175 8.57607 7.60197 8.55737C7.67422 8.54845 7.7469 8.5408 7.81958 8.53442C8.0444 8.51445 8.2705 8.5 8.5 8.5C8.7295 8.5 8.9556 8.51445 9.18043 8.53442C9.2531 8.54122 9.32535 8.54887 9.39803 8.55737C9.55825 8.57607 9.71635 8.60157 9.87317 8.63005C9.98197 8.65002 10.0903 8.6717 10.1983 8.69635C10.3462 8.72992 10.4928 8.76732 10.6373 8.8094C10.755 8.84383 10.8715 8.88293 10.9875 8.9233C11.0636 8.94965 11.1384 8.9777 11.2132 9.00618C11.6348 9.16768 12.0432 9.36615 12.4342 9.6016C14.6561 10.9416 16.15 13.3718 16.15 16.15C16.15 20.3681 12.7181 23.8 8.5 23.8Z" fill="black"/>
</g>
</svg>
