<svg width="17" height="18" viewBox="0 0 17 18" fill="none" xmlns="http://www.w3.org/2000/svg">
<path fill-rule="evenodd" clip-rule="evenodd" d="M0.715776 4.14931C1.10338 3.81994 6.90829 0.715492 7.05569 0.715492C7.15941 0.713672 10.2329 2.31503 12.1163 3.33771C12.2055 3.38684 12.564 3.57791 12.6459 3.62341L13.0844 3.08113C12.9006 2.99014 12.422 2.73902 12.1891 2.6171C11.5067 2.26044 7.27587 -0.152515 6.86826 0.00762019C6.00753 0.346088 5.05399 0.952056 4.2333 1.42154L0.350012 3.5124C-0.150411 3.82358 0.0315608 4.62607 0.0352002 5.28117C0.0606763 9.87415 -0.316006 12.5582 3.39805 16.0412C4.13867 16.7363 6.49885 18.3249 7.47058 17.941C11.4685 16.3615 14.209 13.1587 14.2399 8.57851C14.2436 8.03441 14.2345 7.0554 14.2309 6.5113L13.6012 7.30652C13.5994 7.4612 13.5939 7.92159 13.5867 8.07445C13.5157 9.805 13.2409 11.4373 12.4694 12.8603C11.6432 14.3816 10.3294 15.7373 8.85175 16.538C6.94286 17.5716 6.77909 17.699 3.97854 15.6645C3.19788 15.0968 2.28074 13.8084 1.78031 12.9276C0.419162 10.5293 0.670283 7.25921 0.715776 4.14931Z" fill="white"/>
<path fill-rule="evenodd" clip-rule="evenodd" d="M10.0234 8.45654L9.54663 9.77038C9.54663 9.77038 9.54663 9.82679 9.65035 9.88866C9.66673 9.89412 9.7468 9.86682 9.76682 9.85954L10.835 9.06251L16.5435 2.12573L15.7391 1.45607L10.0234 8.45654ZM15.8793 1.28866L16.6799 1.94558C16.7818 1.82911 16.8674 1.67626 16.8637 1.5507C16.8565 1.21951 16.4689 0.981124 16.1777 1.06483C16.0758 1.09395 15.9721 1.16856 15.8793 1.28866Z" fill="white"/>
<path d="M4.35304 10.4565C4.23658 10.5038 4.10556 10.4474 4.05825 10.3328C4.01093 10.2163 4.06553 10.0853 4.18199 10.038C5.06637 9.67584 5.76151 9.17905 6.27831 8.64041C6.89155 8.00351 7.25186 7.31566 7.37924 6.73517C7.43929 6.46221 7.44475 6.21654 7.40107 6.02001C7.3665 5.86716 7.30281 5.74524 7.20818 5.66699C7.11538 5.59056 6.98982 5.55053 6.82786 5.55599C6.64407 5.56326 6.42024 5.62695 6.15457 5.76343C5.88525 5.89991 5.54132 6.13102 5.17919 6.42217C4.52955 6.94625 3.8235 7.66686 3.36493 8.41841C2.93002 9.12992 2.72257 9.86327 3.02464 10.4547C3.06732 10.5401 3.11918 10.6207 3.17932 10.6949C3.25211 10.7859 3.33582 10.8678 3.43044 10.9424C3.74525 11.1898 4.17835 11.3391 4.68423 11.3063C5.07547 11.2826 5.51038 11.1498 5.96713 10.8696C5.9453 10.8204 5.93256 10.7677 5.92528 10.7131C5.90708 10.5657 5.94712 10.4019 6.02355 10.2363C6.17822 9.90876 6.50031 9.54482 6.80967 9.28642C7.05533 9.08079 7.33556 8.98252 7.53573 8.98798C7.634 8.9898 7.72135 9.01528 7.79231 9.06077C7.88148 9.12082 7.93789 9.20999 7.95245 9.32281C7.96701 9.45383 7.91424 9.61578 7.76866 9.80322C7.45567 10.2036 7.14085 10.5329 6.82968 10.7986C6.8497 10.7986 6.86972 10.7968 6.88973 10.7968C7.18999 10.784 7.72135 10.3528 8.13988 9.95425C8.2527 9.765 8.38008 9.59577 8.47471 9.5066C8.62575 9.36102 8.72219 9.27914 8.77314 9.24456C8.80772 9.2209 8.84229 9.19907 8.87505 9.17905C8.92236 9.14084 8.96785 9.11354 9.01335 9.09352C9.41005 8.86242 9.51013 8.92065 9.34818 9.21363C9.34818 9.30279 9.28449 9.41925 9.12981 9.54482C9.11161 9.57211 9.0916 9.59941 9.06976 9.6267C9.02063 9.69221 8.93146 9.79594 8.815 9.91968C8.72583 10.0125 8.62029 10.1198 8.50383 10.2309C8.4365 10.3491 8.37826 10.4747 8.34733 10.5821C8.32549 10.6603 8.31457 10.7185 8.31457 10.7586C8.38736 10.7477 8.48563 10.704 8.59299 10.6385C8.70218 10.573 8.815 10.4856 8.92054 10.3873C9.01881 10.2945 9.10797 10.1945 9.1753 10.0962C9.24627 9.99247 9.38639 9.96517 9.49011 10.0361C9.59384 10.1053 9.62113 10.2472 9.55017 10.3491C9.46282 10.4802 9.35 10.6075 9.22989 10.7204C9.10251 10.8386 8.96422 10.9442 8.82956 11.0261C8.66214 11.128 8.49655 11.1953 8.35461 11.2117C8.24361 11.2244 8.14352 11.208 8.05799 11.1553C7.96155 11.097 7.89604 11.0061 7.87056 10.8769C7.86457 10.8457 7.86152 10.814 7.86146 10.7822C7.51936 11.0406 7.16997 11.239 6.90793 11.2499C6.66227 11.259 6.46938 11.2335 6.3238 11.1807C5.75605 11.5538 5.20649 11.7285 4.70971 11.7594C4.08918 11.7995 3.54872 11.6102 3.15203 11.299C3.02828 11.2026 2.9191 11.0952 2.8263 10.9788C2.74591 10.881 2.67635 10.7749 2.61885 10.6621C2.23307 9.9033 2.46599 9.01892 2.97733 8.18184C3.46502 7.38299 4.2111 6.62052 4.89532 6.06915C5.28292 5.75616 5.65414 5.50867 5.94894 5.35764C6.27467 5.19204 6.56218 5.11197 6.81148 5.10288C7.0899 5.09196 7.31919 5.1702 7.49752 5.3176C7.67221 5.46318 7.78686 5.67063 7.84327 5.92357C7.90332 6.18379 7.89604 6.49496 7.82325 6.83161C7.67949 7.48489 7.28097 8.25281 6.60586 8.95523C6.04902 9.5339 5.30112 10.0689 4.35304 10.4565ZM6.38203 10.5802L6.42206 10.5475C6.74779 10.2854 7.07898 9.94697 7.41199 9.5248C7.43565 9.49204 7.45567 9.46657 7.4684 9.44473C7.3665 9.46111 7.23366 9.52298 7.10082 9.63398C6.83332 9.85781 6.55854 10.1635 6.4348 10.4292C6.40933 10.4838 6.39113 10.5347 6.38203 10.5802Z" fill="white"/>
</svg>
