<svg width="117" height="30" viewBox="0 0 117 30" fill="none" xmlns="http://www.w3.org/2000/svg">
<path fill-rule="evenodd" clip-rule="evenodd" d="M1.15319 7.18499C1.77766 6.65434 11.13 1.65274 11.3675 1.65274C11.5346 1.64981 16.4864 4.22977 19.5208 5.87742C19.6644 5.95658 20.242 6.26442 20.3739 6.33771L21.0805 5.46404C20.7844 5.31745 20.0133 4.91287 19.638 4.71644C18.5386 4.14181 11.7222 0.254281 11.0655 0.512277C9.67879 1.05759 8.14254 2.03387 6.82031 2.79027L0.563908 6.15887C-0.242329 6.66021 0.0508479 7.95312 0.0567115 9.00856C0.0977563 16.4084 -0.509121 20.7327 5.47463 26.3441C6.66786 27.4641 10.4704 30.0235 12.0359 29.4049C18.477 26.8601 22.8923 21.7002 22.9421 14.3209C22.948 13.4443 22.9333 11.867 22.9275 10.9904L21.9131 12.2716C21.9102 12.5208 21.9014 13.2626 21.8896 13.5088C21.7753 16.2969 21.3326 18.9267 20.0895 21.2194C18.7585 23.6704 16.6418 25.8545 14.2612 27.1445C11.1857 28.8098 10.9219 29.015 6.40987 25.7373C5.15213 24.8225 3.67452 22.7468 2.86828 21.3279C0.675316 17.4638 1.0799 12.1954 1.15319 7.18499Z" fill="#F6E86A"/>
<path fill-rule="evenodd" clip-rule="evenodd" d="M16.149 14.1244L15.3809 16.2411C15.3809 16.2411 15.3809 16.332 15.548 16.4317C15.5744 16.4405 15.7034 16.3965 15.7356 16.3848L17.4566 15.1007L26.6535 3.92474L25.3577 2.84584L16.149 14.1244ZM25.5834 2.57612L26.8734 3.63449C27.0376 3.44686 27.1754 3.20059 27.1695 2.9983C27.1578 2.46471 26.5333 2.08065 26.0642 2.21551C25.9001 2.26242 25.733 2.38262 25.5834 2.57612Z" fill="#F6E86A"/>
<path d="M7.01303 17.3466C6.8254 17.4229 6.61431 17.332 6.53808 17.1473C6.46186 16.9596 6.54981 16.7485 6.73744 16.6723C8.16228 16.0889 9.28222 15.2885 10.1148 14.4207C11.1029 13.3946 11.6833 12.2864 11.8886 11.3512C11.9853 10.9114 11.9941 10.5156 11.9237 10.199C11.868 9.95269 11.7654 9.75627 11.613 9.6302C11.4635 9.50706 11.2612 9.44257 11.0002 9.45136C10.7041 9.46309 10.3435 9.5657 9.91549 9.78558C9.48158 10.0055 8.92748 10.3778 8.34406 10.8469C7.29741 11.6912 6.15988 12.8522 5.42108 14.063C4.72038 15.2094 4.38616 16.3909 4.87284 17.3437C4.94159 17.4814 5.02515 17.6111 5.12204 17.7307C5.23931 17.8773 5.37417 18.0092 5.52662 18.1294C6.03382 18.5281 6.73158 18.7685 7.54661 18.7158C8.17694 18.6777 8.87764 18.4636 9.61351 18.0121C9.57833 17.933 9.55781 17.848 9.54608 17.76C9.51676 17.5225 9.58126 17.2587 9.7044 16.9919C9.9536 16.4642 10.4725 15.8778 10.9709 15.4615C11.3667 15.1302 11.8182 14.9719 12.1407 14.9807C12.299 14.9836 12.4397 15.0247 12.5541 15.098C12.6977 15.1947 12.7886 15.3384 12.8121 15.5201C12.8355 15.7312 12.7505 15.9921 12.516 16.2941C12.0117 16.9391 11.5045 17.4698 11.0032 17.8978C11.0354 17.8978 11.0677 17.8949 11.0999 17.8949C11.5837 17.8743 12.4397 17.1795 13.114 16.5375C13.2958 16.2326 13.501 15.9599 13.6535 15.8162C13.8968 15.5817 14.0522 15.4498 14.1343 15.3941C14.19 15.356 14.2457 15.3208 14.2985 15.2885C14.3747 15.227 14.448 15.183 14.5213 15.1507C15.1604 14.7784 15.3217 14.8722 15.0607 15.3442C15.0607 15.4879 14.9581 15.6755 14.7089 15.8778C14.6796 15.9218 14.6474 15.9658 14.6122 16.0097C14.533 16.1153 14.3894 16.2824 14.2017 16.4818C14.0581 16.6313 13.888 16.8042 13.7004 16.9831C13.5919 17.1737 13.4981 17.3759 13.4483 17.5489C13.4131 17.675 13.3955 17.7688 13.3955 17.8333C13.5128 17.8157 13.6711 17.7453 13.8441 17.6398C14.02 17.5343 14.2017 17.3935 14.3718 17.2352C14.5301 17.0857 14.6738 16.9245 14.7822 16.7661C14.8966 16.599 15.1223 16.555 15.2894 16.6694C15.4565 16.7808 15.5005 17.0095 15.3862 17.1737C15.2454 17.3847 15.0637 17.59 14.8702 17.7717C14.665 17.9623 14.4421 18.1323 14.2252 18.2643C13.9555 18.4285 13.6887 18.5369 13.46 18.5633C13.2812 18.5838 13.1199 18.5575 12.9821 18.4724C12.8267 18.3786 12.7212 18.232 12.6801 18.0239C12.6705 17.9736 12.6656 17.9226 12.6655 17.8714C12.1143 18.2877 11.5514 18.6073 11.1292 18.6249C10.7334 18.6395 10.4227 18.5985 10.1881 18.5135C9.27343 19.1145 8.38803 19.3959 7.58766 19.4458C6.58792 19.5103 5.71719 19.2054 5.07806 18.704C4.8787 18.5487 4.70279 18.3757 4.55327 18.188C4.42376 18.0306 4.31169 17.8595 4.21905 17.6779C3.59751 16.4554 3.97278 15.0305 4.79661 13.6819C5.58232 12.3949 6.78435 11.1664 7.8867 10.2781C8.51117 9.77386 9.10925 9.37514 9.5842 9.1318C10.109 8.86501 10.5722 8.73601 10.9739 8.72135C11.4224 8.70376 11.7918 8.82983 12.0791 9.0673C12.3606 9.30184 12.5453 9.63606 12.6362 10.0436C12.7329 10.4628 12.7212 10.9642 12.6039 11.5065C12.3723 12.559 11.7303 13.7962 10.6426 14.9279C9.74544 15.8602 8.54048 16.7222 7.01303 17.3466ZM10.282 17.546L10.3465 17.4932C10.8712 17.071 11.4048 16.5257 11.9413 15.8456C11.9795 15.7928 12.0117 15.7517 12.0322 15.7166C11.868 15.7429 11.654 15.8426 11.44 16.0215C11.009 16.3821 10.5663 16.8746 10.367 17.3027C10.3259 17.3906 10.2966 17.4727 10.282 17.546Z" fill="#F6E86A"/>
<path d="M47.494 22.9586H46.1452V8.14338H37.1091V22.9586H35.7603V6.99194H47.494V22.9586Z" fill="#F6E86A"/>
<path d="M60.6151 17.1466C60.6151 18.9962 60.2057 20.4656 59.3869 21.5549C58.5681 22.6369 57.4715 23.1779 56.0971 23.1779C54.4741 23.1779 53.2313 22.6077 52.3686 21.4672V27.5205H51.0637V11.0933H52.2809L52.3467 12.7711C53.2021 11.5063 54.4412 10.8739 56.0642 10.8739C57.4825 10.8739 58.5937 11.4113 59.3979 12.486C60.2094 13.5606 60.6151 15.052 60.6151 16.9601V17.1466ZM59.2992 16.9163C59.2992 15.4029 58.9885 14.2076 58.3671 13.3304C57.7457 12.4531 56.8794 12.0144 55.7681 12.0144C54.9639 12.0144 54.2731 12.2082 53.6955 12.5956C53.118 12.9831 52.6757 13.546 52.3686 14.2844V19.9758C52.683 20.6557 53.1326 21.1748 53.7175 21.533C54.3023 21.8912 54.9932 22.0703 55.7901 22.0703C56.894 22.0703 57.753 21.6317 58.3671 20.7544C58.9885 19.8698 59.2992 18.5904 59.2992 16.9163Z" fill="#F6E86A"/>
<path d="M62.5838 16.8505C62.5838 15.71 62.8031 14.6828 63.2417 13.769C63.6877 12.8552 64.3128 12.146 65.1169 11.6416C65.9284 11.1298 66.8459 10.8739 67.8694 10.8739C69.4486 10.8739 70.7279 11.4296 71.7076 12.5408C72.6872 13.6447 73.177 15.1105 73.177 16.9382V17.2124C73.177 18.3601 72.9541 19.3946 72.5081 20.3158C72.0695 21.2296 71.448 21.9351 70.6439 22.4322C69.8397 22.9293 68.9222 23.1779 67.8914 23.1779C66.3196 23.1779 65.0402 22.6259 64.0532 21.522C63.0736 20.4108 62.5838 18.9413 62.5838 17.1137V16.8505ZM63.8997 17.2124C63.8997 18.6306 64.2652 19.7967 64.9963 20.7105C65.7347 21.6171 66.6997 22.0703 67.8914 22.0703C69.0757 22.0703 70.0334 21.6171 70.7645 20.7105C71.5029 19.7967 71.8721 18.5941 71.8721 17.1027V16.8505C71.8721 15.9439 71.7039 15.1142 71.3676 14.3612C71.0313 13.6082 70.5598 13.027 69.953 12.6176C69.3462 12.2008 68.6517 11.9925 67.8694 11.9925C66.6997 11.9925 65.7457 12.4531 65.0073 13.3742C64.2689 14.2881 63.8997 15.487 63.8997 16.9711V17.2124Z" fill="#F6E86A"/>
<path d="M83.9514 12.2118H79.6308V22.9586H78.3149V12.2118H74.1587V11.0933H83.9514V12.2118Z" fill="#F6E86A"/>
<path d="M89.6047 23.1779C88.5958 23.1779 87.682 22.9293 86.8632 22.4322C86.0517 21.9351 85.4193 21.2442 84.966 20.3596C84.5128 19.4677 84.2861 18.4698 84.2861 17.3659V16.8943C84.2861 15.7539 84.5055 14.7267 84.9441 13.8129C85.3901 12.899 86.0078 12.1826 86.7974 11.6635C87.5869 11.1371 88.4423 10.8739 89.3634 10.8739C90.8037 10.8739 91.9441 11.3674 92.7849 12.3544C93.6329 13.334 94.0569 14.6755 94.0569 16.3789V17.1137H85.5911V17.3659C85.5911 18.7111 85.9749 19.8332 86.7425 20.7325C87.5175 21.6244 88.4898 22.0703 89.6595 22.0703C90.3614 22.0703 90.9791 21.9424 91.5128 21.6865C92.0538 21.4306 92.5436 21.0212 92.9823 20.4583L93.8047 21.0834C92.8397 22.4797 91.4397 23.1779 89.6047 23.1779ZM89.3634 11.9925C88.3765 11.9925 87.5431 12.3544 86.8632 13.0781C86.1906 13.8019 85.7812 14.7742 85.635 15.9951H92.752V15.8526C92.7154 14.7121 92.3901 13.7836 91.776 13.0672C91.1619 12.3507 90.3577 11.9925 89.3634 11.9925Z" fill="#F6E86A"/>
<path d="M99.6115 17.5194H97.7911V22.9586H96.4642V11.0933H97.7911V16.357H99.5895L103.943 11.0933H105.599L100.73 16.8505L106.136 22.9586H104.404L99.6115 17.5194Z" fill="#F6E86A"/>
<path d="M112.02 22.0703C112.934 22.0703 113.698 21.8145 114.312 21.3027C114.933 20.7836 115.269 20.1147 115.321 19.2959H116.582C116.545 20.0197 116.319 20.6813 115.902 21.2808C115.485 21.8729 114.93 22.3372 114.235 22.6735C113.548 23.0098 112.809 23.1779 112.02 23.1779C110.463 23.1779 109.227 22.6369 108.313 21.5549C107.407 20.4729 106.953 19.0181 106.953 17.1904V16.7956C106.953 15.6259 107.158 14.5915 107.568 13.6922C107.977 12.793 108.562 12.0985 109.322 11.6087C110.09 11.1189 110.985 10.8739 112.009 10.8739C113.31 10.8739 114.381 11.2614 115.222 12.0364C116.07 12.8113 116.523 13.8311 116.582 15.0959H115.321C115.262 14.1674 114.926 13.4181 114.312 12.8478C113.705 12.2776 112.937 11.9925 112.009 11.9925C110.825 11.9925 109.903 12.4202 109.245 13.2755C108.595 14.1309 108.269 15.3298 108.269 16.8724V17.2562C108.269 18.7695 108.595 19.9502 109.245 20.7983C109.903 21.6463 110.828 22.0703 112.02 22.0703Z" fill="#F6E86A"/>
</svg>
