<svg width="298" height="298" viewBox="0 0 298 298" fill="none" xmlns="http://www.w3.org/2000/svg">
<path d="M9.0303 0H0V9.0303H9.0303V0Z" fill="#158A8C"/>
<path d="M9.0303 9.03027H0V18.0606H9.0303V9.03027Z" fill="#158A8C"/>
<path d="M9.0303 18.0605H0V27.0908H9.0303V18.0605Z" fill="#158A8C"/>
<path d="M9.0303 27.0908H0V36.1211H9.0303V27.0908Z" fill="#158A8C"/>
<path d="M9.0303 36.1211H0V45.1514H9.0303V36.1211Z" fill="#158A8C"/>
<path d="M9.0303 45.1516H0V54.1819H9.0303V45.1516Z" fill="#158A8C"/>
<path d="M9.0303 54.1819H0V63.2122H9.0303V54.1819Z" fill="#158A8C"/>
<path d="M9.0303 72.2424H0V81.2727H9.0303V72.2424Z" fill="#158A8C"/>
<path d="M9.0303 81.2727H0V90.303H9.0303V81.2727Z" fill="#158A8C"/>
<path d="M9.0303 90.303H0V99.3333H9.0303V90.303Z" fill="#158A8C"/>
<path d="M9.0303 99.3333H0V108.364H9.0303V99.3333Z" fill="#158A8C"/>
<path d="M9.0303 108.364H0V117.394H9.0303V108.364Z" fill="#158A8C"/>
<path d="M9.0303 126.424H0V135.455H9.0303V126.424Z" fill="#158A8C"/>
<path d="M9.0303 144.485H0V153.515H9.0303V144.485Z" fill="#158A8C"/>
<path d="M9.0303 153.515H0V162.545H9.0303V153.515Z" fill="#158A8C"/>
<path d="M9.0303 162.545H0V171.576H9.0303V162.545Z" fill="#158A8C"/>
<path d="M9.0303 189.636H0V198.667H9.0303V189.636Z" fill="#158A8C"/>
<path d="M9.0303 207.697H0V216.727H9.0303V207.697Z" fill="#158A8C"/>
<path d="M9.0303 234.788H0V243.818H9.0303V234.788Z" fill="#158A8C"/>
<path d="M9.0303 243.818H0V252.848H9.0303V243.818Z" fill="#158A8C"/>
<path d="M9.0303 252.848H0V261.879H9.0303V252.848Z" fill="#158A8C"/>
<path d="M9.0303 261.879H0V270.909H9.0303V261.879Z" fill="#158A8C"/>
<path d="M9.0303 270.909H0V279.939H9.0303V270.909Z" fill="#158A8C"/>
<path d="M9.0303 279.939H0V288.97H9.0303V279.939Z" fill="#158A8C"/>
<path d="M9.0303 288.97H0V298H9.0303V288.97Z" fill="#158A8C"/>
<path d="M18.0606 0H9.03027V9.0303H18.0606V0Z" fill="#158A8C"/>
<path d="M18.0606 54.1819H9.03027V63.2122H18.0606V54.1819Z" fill="#158A8C"/>
<path d="M18.0606 72.2424H9.03027V81.2727H18.0606V72.2424Z" fill="#158A8C"/>
<path d="M18.0606 90.303H9.03027V99.3333H18.0606V90.303Z" fill="#158A8C"/>
<path d="M18.0606 135.455H9.03027V144.485H18.0606V135.455Z" fill="#158A8C"/>
<path d="M18.0606 171.576H9.03027V180.606H18.0606V171.576Z" fill="#158A8C"/>
<path d="M18.0606 180.606H9.03027V189.636H18.0606V180.606Z" fill="#158A8C"/>
<path d="M18.0606 207.697H9.03027V216.727H18.0606V207.697Z" fill="#158A8C"/>
<path d="M18.0606 234.788H9.03027V243.818H18.0606V234.788Z" fill="#158A8C"/>
<path d="M18.0606 288.97H9.03027V298H18.0606V288.97Z" fill="#158A8C"/>
<path d="M27.0908 0H18.0605V9.0303H27.0908V0Z" fill="#158A8C"/>
<path d="M27.0908 18.0605H18.0605V27.0908H27.0908V18.0605Z" fill="#158A8C"/>
<path d="M27.0908 27.0908H18.0605V36.1211H27.0908V27.0908Z" fill="#158A8C"/>
<path d="M27.0908 36.1211H18.0605V45.1514H27.0908V36.1211Z" fill="#158A8C"/>
<path d="M27.0908 54.1819H18.0605V63.2122H27.0908V54.1819Z" fill="#158A8C"/>
<path d="M27.0908 72.2424H18.0605V81.2727H27.0908V72.2424Z" fill="#158A8C"/>
<path d="M27.0908 81.2727H18.0605V90.303H27.0908V81.2727Z" fill="#158A8C"/>
<path d="M27.0908 135.455H18.0605V144.485H27.0908V135.455Z" fill="#158A8C"/>
<path d="M27.0908 198.667H18.0605V207.697H27.0908V198.667Z" fill="#158A8C"/>
<path d="M27.0908 207.697H18.0605V216.727H27.0908V207.697Z" fill="#158A8C"/>
<path d="M27.0908 216.727H18.0605V225.758H27.0908V216.727Z" fill="#158A8C"/>
<path d="M27.0908 234.788H18.0605V243.818H27.0908V234.788Z" fill="#158A8C"/>
<path d="M27.0908 252.848H18.0605V261.879H27.0908V252.848Z" fill="#158A8C"/>
<path d="M27.0908 261.879H18.0605V270.909H27.0908V261.879Z" fill="#158A8C"/>
<path d="M27.0908 270.909H18.0605V279.939H27.0908V270.909Z" fill="#158A8C"/>
<path d="M27.0908 288.97H18.0605V298H27.0908V288.97Z" fill="#158A8C"/>
<path d="M36.1211 0H27.0908V9.0303H36.1211V0Z" fill="#158A8C"/>
<path d="M36.1211 18.0605H27.0908V27.0908H36.1211V18.0605Z" fill="#158A8C"/>
<path d="M36.1211 27.0908H27.0908V36.1211H36.1211V27.0908Z" fill="#158A8C"/>
<path d="M36.1211 36.1211H27.0908V45.1514H36.1211V36.1211Z" fill="#158A8C"/>
<path d="M36.1211 54.1819H27.0908V63.2122H36.1211V54.1819Z" fill="#158A8C"/>
<path d="M36.1211 81.2727H27.0908V90.303H36.1211V81.2727Z" fill="#158A8C"/>
<path d="M36.1211 90.303H27.0908V99.3333H36.1211V90.303Z" fill="#158A8C"/>
<path d="M36.1211 108.364H27.0908V117.394H36.1211V108.364Z" fill="#158A8C"/>
<path d="M36.1211 126.424H27.0908V135.455H36.1211V126.424Z" fill="#158A8C"/>
<path d="M36.1211 135.455H27.0908V144.485H36.1211V135.455Z" fill="#158A8C"/>
<path d="M36.1211 162.545H27.0908V171.576H36.1211V162.545Z" fill="#158A8C"/>
<path d="M36.1211 171.576H27.0908V180.606H36.1211V171.576Z" fill="#158A8C"/>
<path d="M36.1211 198.667H27.0908V207.697H36.1211V198.667Z" fill="#158A8C"/>
<path d="M36.1211 207.697H27.0908V216.727H36.1211V207.697Z" fill="#158A8C"/>
<path d="M36.1211 234.788H27.0908V243.818H36.1211V234.788Z" fill="#158A8C"/>
<path d="M36.1211 252.848H27.0908V261.879H36.1211V252.848Z" fill="#158A8C"/>
<path d="M36.1211 261.879H27.0908V270.909H36.1211V261.879Z" fill="#158A8C"/>
<path d="M36.1211 270.909H27.0908V279.939H36.1211V270.909Z" fill="#158A8C"/>
<path d="M36.1211 288.97H27.0908V298H36.1211V288.97Z" fill="#158A8C"/>
<path d="M45.1514 0H36.1211V9.0303H45.1514V0Z" fill="#158A8C"/>
<path d="M45.1514 18.0605H36.1211V27.0908H45.1514V18.0605Z" fill="#158A8C"/>
<path d="M45.1514 27.0908H36.1211V36.1211H45.1514V27.0908Z" fill="#158A8C"/>
<path d="M45.1514 36.1211H36.1211V45.1514H45.1514V36.1211Z" fill="#158A8C"/>
<path d="M45.1514 54.1819H36.1211V63.2122H45.1514V54.1819Z" fill="#158A8C"/>
<path d="M45.1514 117.394H36.1211V126.424H45.1514V117.394Z" fill="#158A8C"/>
<path d="M45.1514 135.455H36.1211V144.485H45.1514V135.455Z" fill="#158A8C"/>
<path d="M45.1514 144.485H36.1211V153.515H45.1514V144.485Z" fill="#158A8C"/>
<path d="M45.1514 162.545H36.1211V171.576H45.1514V162.545Z" fill="#158A8C"/>
<path d="M45.1514 171.576H36.1211V180.606H45.1514V171.576Z" fill="#158A8C"/>
<path d="M45.1514 180.606H36.1211V189.636H45.1514V180.606Z" fill="#158A8C"/>
<path d="M45.1514 189.636H36.1211V198.667H45.1514V189.636Z" fill="#158A8C"/>
<path d="M45.1514 198.667H36.1211V207.697H45.1514V198.667Z" fill="#158A8C"/>
<path d="M45.1514 216.727H36.1211V225.758H45.1514V216.727Z" fill="#158A8C"/>
<path d="M45.1514 234.788H36.1211V243.818H45.1514V234.788Z" fill="#158A8C"/>
<path d="M45.1514 252.848H36.1211V261.879H45.1514V252.848Z" fill="#158A8C"/>
<path d="M45.1514 261.879H36.1211V270.909H45.1514V261.879Z" fill="#158A8C"/>
<path d="M45.1514 270.909H36.1211V279.939H45.1514V270.909Z" fill="#158A8C"/>
<path d="M45.1514 288.97H36.1211V298H45.1514V288.97Z" fill="#158A8C"/>
<path d="M54.1817 0H45.1514V9.0303H54.1817V0Z" fill="#158A8C"/>
<path d="M54.1817 54.1819H45.1514V63.2122H54.1817V54.1819Z" fill="#158A8C"/>
<path d="M54.1817 72.2424H45.1514V81.2727H54.1817V72.2424Z" fill="#158A8C"/>
<path d="M54.1817 81.2727H45.1514V90.303H54.1817V81.2727Z" fill="#158A8C"/>
<path d="M54.1817 90.303H45.1514V99.3333H54.1817V90.303Z" fill="#158A8C"/>
<path d="M54.1817 99.3333H45.1514V108.364H54.1817V99.3333Z" fill="#158A8C"/>
<path d="M54.1817 117.394H45.1514V126.424H54.1817V117.394Z" fill="#158A8C"/>
<path d="M54.1817 135.455H45.1514V144.485H54.1817V135.455Z" fill="#158A8C"/>
<path d="M54.1817 144.485H45.1514V153.515H54.1817V144.485Z" fill="#158A8C"/>
<path d="M54.1817 153.515H45.1514V162.545H54.1817V153.515Z" fill="#158A8C"/>
<path d="M54.1817 162.545H45.1514V171.576H54.1817V162.545Z" fill="#158A8C"/>
<path d="M54.1817 171.576H45.1514V180.606H54.1817V171.576Z" fill="#158A8C"/>
<path d="M54.1817 234.788H45.1514V243.818H54.1817V234.788Z" fill="#158A8C"/>
<path d="M54.1817 288.97H45.1514V298H54.1817V288.97Z" fill="#158A8C"/>
<path d="M63.2119 0H54.1816V9.0303H63.2119V0Z" fill="#158A8C"/>
<path d="M63.2119 9.03027H54.1816V18.0606H63.2119V9.03027Z" fill="#158A8C"/>
<path d="M63.2119 18.0605H54.1816V27.0908H63.2119V18.0605Z" fill="#158A8C"/>
<path d="M63.2119 27.0908H54.1816V36.1211H63.2119V27.0908Z" fill="#158A8C"/>
<path d="M63.2119 36.1211H54.1816V45.1514H63.2119V36.1211Z" fill="#158A8C"/>
<path d="M63.2119 45.1516H54.1816V54.1819H63.2119V45.1516Z" fill="#158A8C"/>
<path d="M63.2119 54.1819H54.1816V63.2122H63.2119V54.1819Z" fill="#158A8C"/>
<path d="M63.2119 72.2424H54.1816V81.2727H63.2119V72.2424Z" fill="#158A8C"/>
<path d="M63.2119 90.303H54.1816V99.3333H63.2119V90.303Z" fill="#158A8C"/>
<path d="M63.2119 108.364H54.1816V117.394H63.2119V108.364Z" fill="#158A8C"/>
<path d="M63.2119 126.424H54.1816V135.455H63.2119V126.424Z" fill="#158A8C"/>
<path d="M63.2119 144.485H54.1816V153.515H63.2119V144.485Z" fill="#158A8C"/>
<path d="M63.2119 162.545H54.1816V171.576H63.2119V162.545Z" fill="#158A8C"/>
<path d="M63.2119 180.606H54.1816V189.636H63.2119V180.606Z" fill="#158A8C"/>
<path d="M63.2119 198.667H54.1816V207.697H63.2119V198.667Z" fill="#158A8C"/>
<path d="M63.2119 216.727H54.1816V225.758H63.2119V216.727Z" fill="#158A8C"/>
<path d="M63.2119 234.788H54.1816V243.818H63.2119V234.788Z" fill="#158A8C"/>
<path d="M63.2119 243.818H54.1816V252.848H63.2119V243.818Z" fill="#158A8C"/>
<path d="M63.2119 252.848H54.1816V261.879H63.2119V252.848Z" fill="#158A8C"/>
<path d="M63.2119 261.879H54.1816V270.909H63.2119V261.879Z" fill="#158A8C"/>
<path d="M63.2119 270.909H54.1816V279.939H63.2119V270.909Z" fill="#158A8C"/>
<path d="M63.2119 279.939H54.1816V288.97H63.2119V279.939Z" fill="#158A8C"/>
<path d="M63.2119 288.97H54.1816V298H63.2119V288.97Z" fill="#158A8C"/>
<path d="M72.2422 90.303H63.2119V99.3333H72.2422V90.303Z" fill="#158A8C"/>
<path d="M72.2422 126.424H63.2119V135.455H72.2422V126.424Z" fill="#158A8C"/>
<path d="M72.2422 153.515H63.2119V162.545H72.2422V153.515Z" fill="#158A8C"/>
<path d="M72.2422 162.545H63.2119V171.576H72.2422V162.545Z" fill="#158A8C"/>
<path d="M72.2422 171.576H63.2119V180.606H72.2422V171.576Z" fill="#158A8C"/>
<path d="M72.2422 207.697H63.2119V216.727H72.2422V207.697Z" fill="#158A8C"/>
<path d="M72.2422 216.727H63.2119V225.758H72.2422V216.727Z" fill="#158A8C"/>
<path d="M81.2725 0H72.2422V9.0303H81.2725V0Z" fill="#158A8C"/>
<path d="M81.2725 9.03027H72.2422V18.0606H81.2725V9.03027Z" fill="#158A8C"/>
<path d="M81.2725 36.1211H72.2422V45.1514H81.2725V36.1211Z" fill="#158A8C"/>
<path d="M81.2725 45.1516H72.2422V54.1819H81.2725V45.1516Z" fill="#158A8C"/>
<path d="M81.2725 54.1819H72.2422V63.2122H81.2725V54.1819Z" fill="#158A8C"/>
<path d="M81.2725 63.2122H72.2422V72.2425H81.2725V63.2122Z" fill="#158A8C"/>
<path d="M81.2725 72.2424H72.2422V81.2727H81.2725V72.2424Z" fill="#158A8C"/>
<path d="M81.2725 81.2727H72.2422V90.303H81.2725V81.2727Z" fill="#158A8C"/>
<path d="M81.2725 90.303H72.2422V99.3333H81.2725V90.303Z" fill="#158A8C"/>
<path d="M81.2725 108.364H72.2422V117.394H81.2725V108.364Z" fill="#158A8C"/>
<path d="M81.2725 135.455H72.2422V144.485H81.2725V135.455Z" fill="#158A8C"/>
<path d="M81.2725 144.485H72.2422V153.515H81.2725V144.485Z" fill="#158A8C"/>
<path d="M81.2725 153.515H72.2422V162.545H81.2725V153.515Z" fill="#158A8C"/>
<path d="M81.2725 162.545H72.2422V171.576H81.2725V162.545Z" fill="#158A8C"/>
<path d="M81.2725 171.576H72.2422V180.606H81.2725V171.576Z" fill="#158A8C"/>
<path d="M81.2725 180.606H72.2422V189.636H81.2725V180.606Z" fill="#158A8C"/>
<path d="M81.2725 189.636H72.2422V198.667H81.2725V189.636Z" fill="#158A8C"/>
<path d="M81.2725 198.667H72.2422V207.697H81.2725V198.667Z" fill="#158A8C"/>
<path d="M81.2725 225.758H72.2422V234.788H81.2725V225.758Z" fill="#158A8C"/>
<path d="M81.2725 243.818H72.2422V252.848H81.2725V243.818Z" fill="#158A8C"/>
<path d="M81.2725 270.909H72.2422V279.939H81.2725V270.909Z" fill="#158A8C"/>
<path d="M81.2725 279.939H72.2422V288.97H81.2725V279.939Z" fill="#158A8C"/>
<path d="M81.2725 288.97H72.2422V298H81.2725V288.97Z" fill="#158A8C"/>
<path d="M90.3033 0H81.2729V9.0303H90.3033V0Z" fill="#158A8C"/>
<path d="M90.3033 18.0605H81.2729V27.0908H90.3033V18.0605Z" fill="#158A8C"/>
<path d="M90.3033 45.1516H81.2729V54.1819H90.3033V45.1516Z" fill="#158A8C"/>
<path d="M90.3033 63.2122H81.2729V72.2425H90.3033V63.2122Z" fill="#158A8C"/>
<path d="M90.3033 72.2424H81.2729V81.2727H90.3033V72.2424Z" fill="#158A8C"/>
<path d="M90.3033 90.303H81.2729V99.3333H90.3033V90.303Z" fill="#158A8C"/>
<path d="M90.3033 108.364H81.2729V117.394H90.3033V108.364Z" fill="#158A8C"/>
<path d="M90.3033 126.424H81.2729V135.455H90.3033V126.424Z" fill="#158A8C"/>
<path d="M90.3033 144.485H81.2729V153.515H90.3033V144.485Z" fill="#158A8C"/>
<path d="M90.3033 180.606H81.2729V189.636H90.3033V180.606Z" fill="#158A8C"/>
<path d="M90.3033 189.636H81.2729V198.667H90.3033V189.636Z" fill="#158A8C"/>
<path d="M90.3033 198.667H81.2729V207.697H90.3033V198.667Z" fill="#158A8C"/>
<path d="M90.3033 216.727H81.2729V225.758H90.3033V216.727Z" fill="#158A8C"/>
<path d="M90.3033 225.758H81.2729V234.788H90.3033V225.758Z" fill="#158A8C"/>
<path d="M90.3033 252.848H81.2729V261.879H90.3033V252.848Z" fill="#158A8C"/>
<path d="M90.3033 261.879H81.2729V270.909H90.3033V261.879Z" fill="#158A8C"/>
<path d="M90.3033 270.909H81.2729V279.939H90.3033V270.909Z" fill="#158A8C"/>
<path d="M90.3033 279.939H81.2729V288.97H90.3033V279.939Z" fill="#158A8C"/>
<path d="M99.3335 0H90.3032V9.0303H99.3335V0Z" fill="#158A8C"/>
<path d="M99.3335 45.1516H90.3032V54.1819H99.3335V45.1516Z" fill="#158A8C"/>
<path d="M99.3335 54.1819H90.3032V63.2122H99.3335V54.1819Z" fill="#158A8C"/>
<path d="M99.3335 90.303H90.3032V99.3333H99.3335V90.303Z" fill="#158A8C"/>
<path d="M99.3335 99.3333H90.3032V108.364H99.3335V99.3333Z" fill="#158A8C"/>
<path d="M99.3335 108.364H90.3032V117.394H99.3335V108.364Z" fill="#158A8C"/>
<path d="M99.3335 117.394H90.3032V126.424H99.3335V117.394Z" fill="#158A8C"/>
<path d="M99.3335 144.485H90.3032V153.515H99.3335V144.485Z" fill="#158A8C"/>
<path d="M99.3335 153.515H90.3032V162.545H99.3335V153.515Z" fill="#158A8C"/>
<path d="M99.3335 180.606H90.3032V189.636H99.3335V180.606Z" fill="#158A8C"/>
<path d="M99.3335 198.667H90.3032V207.697H99.3335V198.667Z" fill="#158A8C"/>
<path d="M99.3335 216.727H90.3032V225.758H99.3335V216.727Z" fill="#158A8C"/>
<path d="M99.3335 225.758H90.3032V234.788H99.3335V225.758Z" fill="#158A8C"/>
<path d="M99.3335 243.818H90.3032V252.848H99.3335V243.818Z" fill="#158A8C"/>
<path d="M99.3335 279.939H90.3032V288.97H99.3335V279.939Z" fill="#158A8C"/>
<path d="M99.3335 288.97H90.3032V298H99.3335V288.97Z" fill="#158A8C"/>
<path d="M108.364 0H99.3335V9.0303H108.364V0Z" fill="#158A8C"/>
<path d="M108.364 9.03027H99.3335V18.0606H108.364V9.03027Z" fill="#158A8C"/>
<path d="M108.364 27.0908H99.3335V36.1211H108.364V27.0908Z" fill="#158A8C"/>
<path d="M108.364 36.1211H99.3335V45.1514H108.364V36.1211Z" fill="#158A8C"/>
<path d="M108.364 72.2424H99.3335V81.2727H108.364V72.2424Z" fill="#158A8C"/>
<path d="M108.364 99.3333H99.3335V108.364H108.364V99.3333Z" fill="#158A8C"/>
<path d="M108.364 126.424H99.3335V135.455H108.364V126.424Z" fill="#158A8C"/>
<path d="M108.364 144.485H99.3335V153.515H108.364V144.485Z" fill="#158A8C"/>
<path d="M108.364 171.576H99.3335V180.606H108.364V171.576Z" fill="#158A8C"/>
<path d="M108.364 198.667H99.3335V207.697H108.364V198.667Z" fill="#158A8C"/>
<path d="M108.364 216.727H99.3335V225.758H108.364V216.727Z" fill="#158A8C"/>
<path d="M108.364 243.818H99.3335V252.848H108.364V243.818Z" fill="#158A8C"/>
<path d="M108.364 270.909H99.3335V279.939H108.364V270.909Z" fill="#158A8C"/>
<path d="M108.364 288.97H99.3335V298H108.364V288.97Z" fill="#158A8C"/>
<path d="M117.394 27.0908H108.364V36.1211H117.394V27.0908Z" fill="#158A8C"/>
<path d="M117.394 36.1211H108.364V45.1514H117.394V36.1211Z" fill="#158A8C"/>
<path d="M117.394 45.1516H108.364V54.1819H117.394V45.1516Z" fill="#158A8C"/>
<path d="M117.394 54.1819H108.364V63.2122H117.394V54.1819Z" fill="#158A8C"/>
<path d="M117.394 72.2424H108.364V81.2727H117.394V72.2424Z" fill="#158A8C"/>
<path d="M117.394 81.2727H108.364V90.303H117.394V81.2727Z" fill="#158A8C"/>
<path d="M117.394 90.303H108.364V99.3333H117.394V90.303Z" fill="#158A8C"/>
<path d="M117.394 99.3333H108.364V108.364H117.394V99.3333Z" fill="#158A8C"/>
<path d="M117.394 144.485H108.364V153.515H117.394V144.485Z" fill="#158A8C"/>
<path d="M117.394 153.515H108.364V162.545H117.394V153.515Z" fill="#158A8C"/>
<path d="M117.394 162.545H108.364V171.576H117.394V162.545Z" fill="#158A8C"/>
<path d="M117.394 171.576H108.364V180.606H117.394V171.576Z" fill="#158A8C"/>
<path d="M117.394 216.727H108.364V225.758H117.394V216.727Z" fill="#158A8C"/>
<path d="M117.394 225.758H108.364V234.788H117.394V225.758Z" fill="#158A8C"/>
<path d="M117.394 234.788H108.364V243.818H117.394V234.788Z" fill="#158A8C"/>
<path d="M117.394 243.818H108.364V252.848H117.394V243.818Z" fill="#158A8C"/>
<path d="M117.394 288.97H108.364V298H117.394V288.97Z" fill="#158A8C"/>
<path d="M126.424 0H117.394V9.0303H126.424V0Z" fill="#158A8C"/>
<path d="M126.424 36.1211H117.394V45.1514H126.424V36.1211Z" fill="#158A8C"/>
<path d="M126.424 63.2122H117.394V72.2425H126.424V63.2122Z" fill="#158A8C"/>
<path d="M126.424 81.2727H117.394V90.303H126.424V81.2727Z" fill="#158A8C"/>
<path d="M126.424 99.3333H117.394V108.364H126.424V99.3333Z" fill="#158A8C"/>
<path d="M126.424 108.364H117.394V117.394H126.424V108.364Z" fill="#158A8C"/>
<path d="M126.424 126.424H117.394V135.455H126.424V126.424Z" fill="#158A8C"/>
<path d="M126.424 135.455H117.394V144.485H126.424V135.455Z" fill="#158A8C"/>
<path d="M126.424 144.485H117.394V153.515H126.424V144.485Z" fill="#158A8C"/>
<path d="M126.424 162.545H117.394V171.576H126.424V162.545Z" fill="#158A8C"/>
<path d="M126.424 180.606H117.394V189.636H126.424V180.606Z" fill="#158A8C"/>
<path d="M126.424 189.636H117.394V198.667H126.424V189.636Z" fill="#158A8C"/>
<path d="M126.424 207.697H117.394V216.727H126.424V207.697Z" fill="#158A8C"/>
<path d="M126.424 216.727H117.394V225.758H126.424V216.727Z" fill="#158A8C"/>
<path d="M126.424 234.788H117.394V243.818H126.424V234.788Z" fill="#158A8C"/>
<path d="M126.424 252.848H117.394V261.879H126.424V252.848Z" fill="#158A8C"/>
<path d="M126.424 261.879H117.394V270.909H126.424V261.879Z" fill="#158A8C"/>
<path d="M126.424 279.939H117.394V288.97H126.424V279.939Z" fill="#158A8C"/>
<path d="M126.424 288.97H117.394V298H126.424V288.97Z" fill="#158A8C"/>
<path d="M135.455 9.03027H126.424V18.0606H135.455V9.03027Z" fill="#158A8C"/>
<path d="M135.455 27.0908H126.424V36.1211H135.455V27.0908Z" fill="#158A8C"/>
<path d="M135.455 54.1819H126.424V63.2122H135.455V54.1819Z" fill="#158A8C"/>
<path d="M135.455 72.2424H126.424V81.2727H135.455V72.2424Z" fill="#158A8C"/>
<path d="M135.455 81.2727H126.424V90.303H135.455V81.2727Z" fill="#158A8C"/>
<path d="M135.455 90.303H126.424V99.3333H135.455V90.303Z" fill="#158A8C"/>
<path d="M135.455 117.394H126.424V126.424H135.455V117.394Z" fill="#158A8C"/>
<path d="M135.455 126.424H126.424V135.455H135.455V126.424Z" fill="#158A8C"/>
<path d="M135.455 135.455H126.424V144.485H135.455V135.455Z" fill="#158A8C"/>
<path d="M135.455 144.485H126.424V153.515H135.455V144.485Z" fill="#158A8C"/>
<path d="M135.455 162.545H126.424V171.576H135.455V162.545Z" fill="#158A8C"/>
<path d="M135.455 171.576H126.424V180.606H135.455V171.576Z" fill="#158A8C"/>
<path d="M135.455 180.606H126.424V189.636H135.455V180.606Z" fill="#158A8C"/>
<path d="M135.455 234.788H126.424V243.818H135.455V234.788Z" fill="#158A8C"/>
<path d="M135.455 243.818H126.424V252.848H135.455V243.818Z" fill="#158A8C"/>
<path d="M135.455 252.848H126.424V261.879H135.455V252.848Z" fill="#158A8C"/>
<path d="M135.455 261.879H126.424V270.909H135.455V261.879Z" fill="#158A8C"/>
<path d="M144.485 9.03027H135.455V18.0606H144.485V9.03027Z" fill="#158A8C"/>
<path d="M144.485 18.0605H135.455V27.0908H144.485V18.0605Z" fill="#158A8C"/>
<path d="M144.485 36.1211H135.455V45.1514H144.485V36.1211Z" fill="#158A8C"/>
<path d="M144.485 45.1516H135.455V54.1819H144.485V45.1516Z" fill="#158A8C"/>
<path d="M144.485 63.2122H135.455V72.2425H144.485V63.2122Z" fill="#158A8C"/>
<path d="M144.485 72.2424H135.455V81.2727H144.485V72.2424Z" fill="#158A8C"/>
<path d="M144.485 108.364H135.455V117.394H144.485V108.364Z" fill="#158A8C"/>
<path d="M144.485 135.455H135.455V144.485H144.485V135.455Z" fill="#158A8C"/>
<path d="M144.485 153.515H135.455V162.545H144.485V153.515Z" fill="#158A8C"/>
<path d="M144.485 180.606H135.455V189.636H144.485V180.606Z" fill="#158A8C"/>
<path d="M144.485 216.727H135.455V225.758H144.485V216.727Z" fill="#158A8C"/>
<path d="M144.485 252.848H135.455V261.879H144.485V252.848Z" fill="#158A8C"/>
<path d="M144.485 279.939H135.455V288.97H144.485V279.939Z" fill="#158A8C"/>
<path d="M153.515 0H144.485V9.0303H153.515V0Z" fill="#158A8C"/>
<path d="M153.515 18.0605H144.485V27.0908H153.515V18.0605Z" fill="#158A8C"/>
<path d="M153.515 27.0908H144.485V36.1211H153.515V27.0908Z" fill="#158A8C"/>
<path d="M153.515 54.1819H144.485V63.2122H153.515V54.1819Z" fill="#158A8C"/>
<path d="M153.515 72.2424H144.485V81.2727H153.515V72.2424Z" fill="#158A8C"/>
<path d="M153.515 117.394H144.485V126.424H153.515V117.394Z" fill="#158A8C"/>
<path d="M153.515 126.424H144.485V135.455H153.515V126.424Z" fill="#158A8C"/>
<path d="M153.515 135.455H144.485V144.485H153.515V135.455Z" fill="#158A8C"/>
<path d="M153.515 162.545H144.485V171.576H153.515V162.545Z" fill="#158A8C"/>
<path d="M153.515 189.636H144.485V198.667H153.515V189.636Z" fill="#158A8C"/>
<path d="M153.515 198.667H144.485V207.697H153.515V198.667Z" fill="#158A8C"/>
<path d="M153.515 216.727H144.485V225.758H153.515V216.727Z" fill="#158A8C"/>
<path d="M153.515 261.879H144.485V270.909H153.515V261.879Z" fill="#158A8C"/>
<path d="M153.515 279.939H144.485V288.97H153.515V279.939Z" fill="#158A8C"/>
<path d="M162.545 0H153.515V9.0303H162.545V0Z" fill="#158A8C"/>
<path d="M162.545 27.0908H153.515V36.1211H162.545V27.0908Z" fill="#158A8C"/>
<path d="M162.545 63.2122H153.515V72.2425H162.545V63.2122Z" fill="#158A8C"/>
<path d="M162.545 72.2424H153.515V81.2727H162.545V72.2424Z" fill="#158A8C"/>
<path d="M162.545 90.303H153.515V99.3333H162.545V90.303Z" fill="#158A8C"/>
<path d="M162.545 99.3333H153.515V108.364H162.545V99.3333Z" fill="#158A8C"/>
<path d="M162.545 117.394H153.515V126.424H162.545V117.394Z" fill="#158A8C"/>
<path d="M162.545 126.424H153.515V135.455H162.545V126.424Z" fill="#158A8C"/>
<path d="M162.545 135.455H153.515V144.485H162.545V135.455Z" fill="#158A8C"/>
<path d="M162.545 144.485H153.515V153.515H162.545V144.485Z" fill="#158A8C"/>
<path d="M162.545 162.545H153.515V171.576H162.545V162.545Z" fill="#158A8C"/>
<path d="M162.545 171.576H153.515V180.606H162.545V171.576Z" fill="#158A8C"/>
<path d="M162.545 198.667H153.515V207.697H162.545V198.667Z" fill="#158A8C"/>
<path d="M162.545 234.788H153.515V243.818H162.545V234.788Z" fill="#158A8C"/>
<path d="M162.545 243.818H153.515V252.848H162.545V243.818Z" fill="#158A8C"/>
<path d="M162.545 252.848H153.515V261.879H162.545V252.848Z" fill="#158A8C"/>
<path d="M162.545 270.909H153.515V279.939H162.545V270.909Z" fill="#158A8C"/>
<path d="M162.545 279.939H153.515V288.97H162.545V279.939Z" fill="#158A8C"/>
<path d="M162.545 288.97H153.515V298H162.545V288.97Z" fill="#158A8C"/>
<path d="M171.576 18.0605H162.545V27.0908H171.576V18.0605Z" fill="#158A8C"/>
<path d="M171.576 45.1516H162.545V54.1819H171.576V45.1516Z" fill="#158A8C"/>
<path d="M171.576 54.1819H162.545V63.2122H171.576V54.1819Z" fill="#158A8C"/>
<path d="M171.576 63.2122H162.545V72.2425H171.576V63.2122Z" fill="#158A8C"/>
<path d="M171.576 81.2727H162.545V90.303H171.576V81.2727Z" fill="#158A8C"/>
<path d="M171.576 90.303H162.545V99.3333H171.576V90.303Z" fill="#158A8C"/>
<path d="M171.576 108.364H162.545V117.394H171.576V108.364Z" fill="#158A8C"/>
<path d="M171.576 117.394H162.545V126.424H171.576V117.394Z" fill="#158A8C"/>
<path d="M171.576 126.424H162.545V135.455H171.576V126.424Z" fill="#158A8C"/>
<path d="M171.576 153.515H162.545V162.545H171.576V153.515Z" fill="#158A8C"/>
<path d="M171.576 162.545H162.545V171.576H171.576V162.545Z" fill="#158A8C"/>
<path d="M171.576 180.606H162.545V189.636H171.576V180.606Z" fill="#158A8C"/>
<path d="M171.576 189.636H162.545V198.667H171.576V189.636Z" fill="#158A8C"/>
<path d="M171.576 207.697H162.545V216.727H171.576V207.697Z" fill="#158A8C"/>
<path d="M171.576 216.727H162.545V225.758H171.576V216.727Z" fill="#158A8C"/>
<path d="M171.576 234.788H162.545V243.818H171.576V234.788Z" fill="#158A8C"/>
<path d="M171.576 261.879H162.545V270.909H171.576V261.879Z" fill="#158A8C"/>
<path d="M171.576 270.909H162.545V279.939H171.576V270.909Z" fill="#158A8C"/>
<path d="M171.576 288.97H162.545V298H171.576V288.97Z" fill="#158A8C"/>
<path d="M180.606 0H171.576V9.0303H180.606V0Z" fill="#158A8C"/>
<path d="M180.606 9.03027H171.576V18.0606H180.606V9.03027Z" fill="#158A8C"/>
<path d="M180.606 18.0605H171.576V27.0908H180.606V18.0605Z" fill="#158A8C"/>
<path d="M180.606 45.1516H171.576V54.1819H180.606V45.1516Z" fill="#158A8C"/>
<path d="M180.606 72.2424H171.576V81.2727H180.606V72.2424Z" fill="#158A8C"/>
<path d="M180.606 99.3333H171.576V108.364H180.606V99.3333Z" fill="#158A8C"/>
<path d="M180.606 108.364H171.576V117.394H180.606V108.364Z" fill="#158A8C"/>
<path d="M180.606 117.394H171.576V126.424H180.606V117.394Z" fill="#158A8C"/>
<path d="M180.606 144.485H171.576V153.515H180.606V144.485Z" fill="#158A8C"/>
<path d="M180.606 171.576H171.576V180.606H180.606V171.576Z" fill="#158A8C"/>
<path d="M180.606 189.636H171.576V198.667H180.606V189.636Z" fill="#158A8C"/>
<path d="M180.606 216.727H171.576V225.758H180.606V216.727Z" fill="#158A8C"/>
<path d="M180.606 243.818H171.576V252.848H180.606V243.818Z" fill="#158A8C"/>
<path d="M180.606 261.879H171.576V270.909H180.606V261.879Z" fill="#158A8C"/>
<path d="M180.606 288.97H171.576V298H180.606V288.97Z" fill="#158A8C"/>
<path d="M189.636 9.03027H180.606V18.0606H189.636V9.03027Z" fill="#158A8C"/>
<path d="M189.636 27.0908H180.606V36.1211H189.636V27.0908Z" fill="#158A8C"/>
<path d="M189.636 36.1211H180.606V45.1514H189.636V36.1211Z" fill="#158A8C"/>
<path d="M189.636 54.1819H180.606V63.2122H189.636V54.1819Z" fill="#158A8C"/>
<path d="M189.636 81.2727H180.606V90.303H189.636V81.2727Z" fill="#158A8C"/>
<path d="M189.636 90.303H180.606V99.3333H189.636V90.303Z" fill="#158A8C"/>
<path d="M189.636 99.3333H180.606V108.364H189.636V99.3333Z" fill="#158A8C"/>
<path d="M189.636 126.424H180.606V135.455H189.636V126.424Z" fill="#158A8C"/>
<path d="M189.636 153.515H180.606V162.545H189.636V153.515Z" fill="#158A8C"/>
<path d="M189.636 162.545H180.606V171.576H189.636V162.545Z" fill="#158A8C"/>
<path d="M189.636 171.576H180.606V180.606H189.636V171.576Z" fill="#158A8C"/>
<path d="M189.636 198.667H180.606V207.697H189.636V198.667Z" fill="#158A8C"/>
<path d="M189.636 225.758H180.606V234.788H189.636V225.758Z" fill="#158A8C"/>
<path d="M189.636 270.909H180.606V279.939H189.636V270.909Z" fill="#158A8C"/>
<path d="M198.667 9.03027H189.636V18.0606H198.667V9.03027Z" fill="#158A8C"/>
<path d="M198.667 18.0605H189.636V27.0908H198.667V18.0605Z" fill="#158A8C"/>
<path d="M198.667 27.0908H189.636V36.1211H198.667V27.0908Z" fill="#158A8C"/>
<path d="M198.667 36.1211H189.636V45.1514H198.667V36.1211Z" fill="#158A8C"/>
<path d="M198.667 63.2122H189.636V72.2425H198.667V63.2122Z" fill="#158A8C"/>
<path d="M198.667 72.2424H189.636V81.2727H198.667V72.2424Z" fill="#158A8C"/>
<path d="M198.667 90.303H189.636V99.3333H198.667V90.303Z" fill="#158A8C"/>
<path d="M198.667 99.3333H189.636V108.364H198.667V99.3333Z" fill="#158A8C"/>
<path d="M198.667 117.394H189.636V126.424H198.667V117.394Z" fill="#158A8C"/>
<path d="M198.667 135.455H189.636V144.485H198.667V135.455Z" fill="#158A8C"/>
<path d="M198.667 144.485H189.636V153.515H198.667V144.485Z" fill="#158A8C"/>
<path d="M198.667 162.545H189.636V171.576H198.667V162.545Z" fill="#158A8C"/>
<path d="M198.667 171.576H189.636V180.606H198.667V171.576Z" fill="#158A8C"/>
<path d="M198.667 180.606H189.636V189.636H198.667V180.606Z" fill="#158A8C"/>
<path d="M198.667 198.667H189.636V207.697H198.667V198.667Z" fill="#158A8C"/>
<path d="M198.667 207.697H189.636V216.727H198.667V207.697Z" fill="#158A8C"/>
<path d="M198.667 216.727H189.636V225.758H198.667V216.727Z" fill="#158A8C"/>
<path d="M198.667 234.788H189.636V243.818H198.667V234.788Z" fill="#158A8C"/>
<path d="M198.667 243.818H189.636V252.848H198.667V243.818Z" fill="#158A8C"/>
<path d="M198.667 261.879H189.636V270.909H198.667V261.879Z" fill="#158A8C"/>
<path d="M198.667 270.909H189.636V279.939H198.667V270.909Z" fill="#158A8C"/>
<path d="M198.667 279.939H189.636V288.97H198.667V279.939Z" fill="#158A8C"/>
<path d="M198.667 288.97H189.636V298H198.667V288.97Z" fill="#158A8C"/>
<path d="M207.697 9.03027H198.667V18.0606H207.697V9.03027Z" fill="#158A8C"/>
<path d="M207.697 18.0605H198.667V27.0908H207.697V18.0605Z" fill="#158A8C"/>
<path d="M207.697 36.1211H198.667V45.1514H207.697V36.1211Z" fill="#158A8C"/>
<path d="M207.697 54.1819H198.667V63.2122H207.697V54.1819Z" fill="#158A8C"/>
<path d="M207.697 81.2727H198.667V90.303H207.697V81.2727Z" fill="#158A8C"/>
<path d="M207.697 90.303H198.667V99.3333H207.697V90.303Z" fill="#158A8C"/>
<path d="M207.697 108.364H198.667V117.394H207.697V108.364Z" fill="#158A8C"/>
<path d="M207.697 117.394H198.667V126.424H207.697V117.394Z" fill="#158A8C"/>
<path d="M207.697 135.455H198.667V144.485H207.697V135.455Z" fill="#158A8C"/>
<path d="M207.697 153.515H198.667V162.545H207.697V153.515Z" fill="#158A8C"/>
<path d="M207.697 162.545H198.667V171.576H207.697V162.545Z" fill="#158A8C"/>
<path d="M207.697 171.576H198.667V180.606H207.697V171.576Z" fill="#158A8C"/>
<path d="M207.697 180.606H198.667V189.636H207.697V180.606Z" fill="#158A8C"/>
<path d="M207.697 198.667H198.667V207.697H207.697V198.667Z" fill="#158A8C"/>
<path d="M207.697 225.758H198.667V234.788H207.697V225.758Z" fill="#158A8C"/>
<path d="M207.697 234.788H198.667V243.818H207.697V234.788Z" fill="#158A8C"/>
<path d="M207.697 252.848H198.667V261.879H207.697V252.848Z" fill="#158A8C"/>
<path d="M207.697 261.879H198.667V270.909H207.697V261.879Z" fill="#158A8C"/>
<path d="M207.697 270.909H198.667V279.939H207.697V270.909Z" fill="#158A8C"/>
<path d="M216.727 9.03027H207.697V18.0606H216.727V9.03027Z" fill="#158A8C"/>
<path d="M216.727 18.0605H207.697V27.0908H216.727V18.0605Z" fill="#158A8C"/>
<path d="M216.727 36.1211H207.697V45.1514H216.727V36.1211Z" fill="#158A8C"/>
<path d="M216.727 45.1516H207.697V54.1819H216.727V45.1516Z" fill="#158A8C"/>
<path d="M216.727 63.2122H207.697V72.2425H216.727V63.2122Z" fill="#158A8C"/>
<path d="M216.727 72.2424H207.697V81.2727H216.727V72.2424Z" fill="#158A8C"/>
<path d="M216.727 108.364H207.697V117.394H216.727V108.364Z" fill="#158A8C"/>
<path d="M216.727 135.455H207.697V144.485H216.727V135.455Z" fill="#158A8C"/>
<path d="M216.727 180.606H207.697V189.636H216.727V180.606Z" fill="#158A8C"/>
<path d="M216.727 216.727H207.697V225.758H216.727V216.727Z" fill="#158A8C"/>
<path d="M216.727 234.788H207.697V243.818H216.727V234.788Z" fill="#158A8C"/>
<path d="M216.727 261.879H207.697V270.909H216.727V261.879Z" fill="#158A8C"/>
<path d="M216.727 270.909H207.697V279.939H216.727V270.909Z" fill="#158A8C"/>
<path d="M216.727 279.939H207.697V288.97H216.727V279.939Z" fill="#158A8C"/>
<path d="M225.757 0H216.727V9.0303H225.757V0Z" fill="#158A8C"/>
<path d="M225.757 18.0605H216.727V27.0908H225.757V18.0605Z" fill="#158A8C"/>
<path d="M225.757 27.0908H216.727V36.1211H225.757V27.0908Z" fill="#158A8C"/>
<path d="M225.757 54.1819H216.727V63.2122H225.757V54.1819Z" fill="#158A8C"/>
<path d="M225.757 72.2424H216.727V81.2727H225.757V72.2424Z" fill="#158A8C"/>
<path d="M225.757 117.394H216.727V126.424H225.757V117.394Z" fill="#158A8C"/>
<path d="M225.757 144.485H216.727V153.515H225.757V144.485Z" fill="#158A8C"/>
<path d="M225.757 189.636H216.727V198.667H225.757V189.636Z" fill="#158A8C"/>
<path d="M225.757 198.667H216.727V207.697H225.757V198.667Z" fill="#158A8C"/>
<path d="M225.757 216.727H216.727V225.758H225.757V216.727Z" fill="#158A8C"/>
<path d="M225.757 225.758H216.727V234.788H225.757V225.758Z" fill="#158A8C"/>
<path d="M225.757 234.788H216.727V243.818H225.757V234.788Z" fill="#158A8C"/>
<path d="M225.757 243.818H216.727V252.848H225.757V243.818Z" fill="#158A8C"/>
<path d="M225.757 252.848H216.727V261.879H225.757V252.848Z" fill="#158A8C"/>
<path d="M225.757 270.909H216.727V279.939H225.757V270.909Z" fill="#158A8C"/>
<path d="M234.788 72.2424H225.758V81.2727H234.788V72.2424Z" fill="#158A8C"/>
<path d="M234.788 81.2727H225.758V90.303H234.788V81.2727Z" fill="#158A8C"/>
<path d="M234.788 117.394H225.758V126.424H234.788V117.394Z" fill="#158A8C"/>
<path d="M234.788 126.424H225.758V135.455H234.788V126.424Z" fill="#158A8C"/>
<path d="M234.788 135.455H225.758V144.485H234.788V135.455Z" fill="#158A8C"/>
<path d="M234.788 144.485H225.758V153.515H234.788V144.485Z" fill="#158A8C"/>
<path d="M234.788 162.545H225.758V171.576H234.788V162.545Z" fill="#158A8C"/>
<path d="M234.788 189.636H225.758V198.667H234.788V189.636Z" fill="#158A8C"/>
<path d="M234.788 198.667H225.758V207.697H234.788V198.667Z" fill="#158A8C"/>
<path d="M234.788 216.727H225.758V225.758H234.788V216.727Z" fill="#158A8C"/>
<path d="M234.788 252.848H225.758V261.879H234.788V252.848Z" fill="#158A8C"/>
<path d="M234.788 288.97H225.758V298H234.788V288.97Z" fill="#158A8C"/>
<path d="M243.818 0H234.788V9.0303H243.818V0Z" fill="#158A8C"/>
<path d="M243.818 9.03027H234.788V18.0606H243.818V9.03027Z" fill="#158A8C"/>
<path d="M243.818 18.0605H234.788V27.0908H243.818V18.0605Z" fill="#158A8C"/>
<path d="M243.818 27.0908H234.788V36.1211H243.818V27.0908Z" fill="#158A8C"/>
<path d="M243.818 36.1211H234.788V45.1514H243.818V36.1211Z" fill="#158A8C"/>
<path d="M243.818 45.1516H234.788V54.1819H243.818V45.1516Z" fill="#158A8C"/>
<path d="M243.818 54.1819H234.788V63.2122H243.818V54.1819Z" fill="#158A8C"/>
<path d="M243.818 72.2424H234.788V81.2727H243.818V72.2424Z" fill="#158A8C"/>
<path d="M243.818 81.2727H234.788V90.303H243.818V81.2727Z" fill="#158A8C"/>
<path d="M243.818 99.3333H234.788V108.364H243.818V99.3333Z" fill="#158A8C"/>
<path d="M243.818 126.424H234.788V135.455H243.818V126.424Z" fill="#158A8C"/>
<path d="M243.818 162.545H234.788V171.576H243.818V162.545Z" fill="#158A8C"/>
<path d="M243.818 171.576H234.788V180.606H243.818V171.576Z" fill="#158A8C"/>
<path d="M243.818 198.667H234.788V207.697H243.818V198.667Z" fill="#158A8C"/>
<path d="M243.818 216.727H234.788V225.758H243.818V216.727Z" fill="#158A8C"/>
<path d="M243.818 234.788H234.788V243.818H243.818V234.788Z" fill="#158A8C"/>
<path d="M243.818 252.848H234.788V261.879H243.818V252.848Z" fill="#158A8C"/>
<path d="M243.818 261.879H234.788V270.909H243.818V261.879Z" fill="#158A8C"/>
<path d="M243.818 279.939H234.788V288.97H243.818V279.939Z" fill="#158A8C"/>
<path d="M252.849 0H243.818V9.0303H252.849V0Z" fill="#158A8C"/>
<path d="M252.849 54.1819H243.818V63.2122H252.849V54.1819Z" fill="#158A8C"/>
<path d="M252.849 72.2424H243.818V81.2727H252.849V72.2424Z" fill="#158A8C"/>
<path d="M252.849 90.303H243.818V99.3333H252.849V90.303Z" fill="#158A8C"/>
<path d="M252.849 117.394H243.818V126.424H252.849V117.394Z" fill="#158A8C"/>
<path d="M252.849 126.424H243.818V135.455H252.849V126.424Z" fill="#158A8C"/>
<path d="M252.849 144.485H243.818V153.515H252.849V144.485Z" fill="#158A8C"/>
<path d="M252.849 162.545H243.818V171.576H252.849V162.545Z" fill="#158A8C"/>
<path d="M252.849 180.606H243.818V189.636H252.849V180.606Z" fill="#158A8C"/>
<path d="M252.849 216.727H243.818V225.758H252.849V216.727Z" fill="#158A8C"/>
<path d="M252.849 252.848H243.818V261.879H252.849V252.848Z" fill="#158A8C"/>
<path d="M252.849 261.879H243.818V270.909H252.849V261.879Z" fill="#158A8C"/>
<path d="M252.849 279.939H243.818V288.97H252.849V279.939Z" fill="#158A8C"/>
<path d="M261.879 0H252.849V9.0303H261.879V0Z" fill="#158A8C"/>
<path d="M261.879 18.0605H252.849V27.0908H261.879V18.0605Z" fill="#158A8C"/>
<path d="M261.879 27.0908H252.849V36.1211H261.879V27.0908Z" fill="#158A8C"/>
<path d="M261.879 36.1211H252.849V45.1514H261.879V36.1211Z" fill="#158A8C"/>
<path d="M261.879 54.1819H252.849V63.2122H261.879V54.1819Z" fill="#158A8C"/>
<path d="M261.879 72.2424H252.849V81.2727H261.879V72.2424Z" fill="#158A8C"/>
<path d="M261.879 81.2727H252.849V90.303H261.879V81.2727Z" fill="#158A8C"/>
<path d="M261.879 90.303H252.849V99.3333H261.879V90.303Z" fill="#158A8C"/>
<path d="M261.879 108.364H252.849V117.394H261.879V108.364Z" fill="#158A8C"/>
<path d="M261.879 117.394H252.849V126.424H261.879V117.394Z" fill="#158A8C"/>
<path d="M261.879 126.424H252.849V135.455H261.879V126.424Z" fill="#158A8C"/>
<path d="M261.879 180.606H252.849V189.636H261.879V180.606Z" fill="#158A8C"/>
<path d="M261.879 189.636H252.849V198.667H261.879V189.636Z" fill="#158A8C"/>
<path d="M261.879 198.667H252.849V207.697H261.879V198.667Z" fill="#158A8C"/>
<path d="M261.879 216.727H252.849V225.758H261.879V216.727Z" fill="#158A8C"/>
<path d="M261.879 225.758H252.849V234.788H261.879V225.758Z" fill="#158A8C"/>
<path d="M261.879 234.788H252.849V243.818H261.879V234.788Z" fill="#158A8C"/>
<path d="M261.879 243.818H252.849V252.848H261.879V243.818Z" fill="#158A8C"/>
<path d="M261.879 252.848H252.849V261.879H261.879V252.848Z" fill="#158A8C"/>
<path d="M261.879 288.97H252.849V298H261.879V288.97Z" fill="#158A8C"/>
<path d="M270.909 0H261.879V9.0303H270.909V0Z" fill="#158A8C"/>
<path d="M270.909 18.0605H261.879V27.0908H270.909V18.0605Z" fill="#158A8C"/>
<path d="M270.909 27.0908H261.879V36.1211H270.909V27.0908Z" fill="#158A8C"/>
<path d="M270.909 36.1211H261.879V45.1514H270.909V36.1211Z" fill="#158A8C"/>
<path d="M270.909 54.1819H261.879V63.2122H270.909V54.1819Z" fill="#158A8C"/>
<path d="M270.909 99.3333H261.879V108.364H270.909V99.3333Z" fill="#158A8C"/>
<path d="M270.909 144.485H261.879V153.515H270.909V144.485Z" fill="#158A8C"/>
<path d="M270.909 171.576H261.879V180.606H270.909V171.576Z" fill="#158A8C"/>
<path d="M270.909 198.667H261.879V207.697H270.909V198.667Z" fill="#158A8C"/>
<path d="M270.909 225.758H261.879V234.788H270.909V225.758Z" fill="#158A8C"/>
<path d="M270.909 234.788H261.879V243.818H270.909V234.788Z" fill="#158A8C"/>
<path d="M270.909 243.818H261.879V252.848H270.909V243.818Z" fill="#158A8C"/>
<path d="M270.909 270.909H261.879V279.939H270.909V270.909Z" fill="#158A8C"/>
<path d="M279.939 0H270.909V9.0303H279.939V0Z" fill="#158A8C"/>
<path d="M279.939 18.0605H270.909V27.0908H279.939V18.0605Z" fill="#158A8C"/>
<path d="M279.939 27.0908H270.909V36.1211H279.939V27.0908Z" fill="#158A8C"/>
<path d="M279.939 36.1211H270.909V45.1514H279.939V36.1211Z" fill="#158A8C"/>
<path d="M279.939 54.1819H270.909V63.2122H279.939V54.1819Z" fill="#158A8C"/>
<path d="M279.939 90.303H270.909V99.3333H279.939V90.303Z" fill="#158A8C"/>
<path d="M279.939 99.3333H270.909V108.364H279.939V99.3333Z" fill="#158A8C"/>
<path d="M279.939 108.364H270.909V117.394H279.939V108.364Z" fill="#158A8C"/>
<path d="M279.939 126.424H270.909V135.455H279.939V126.424Z" fill="#158A8C"/>
<path d="M279.939 135.455H270.909V144.485H279.939V135.455Z" fill="#158A8C"/>
<path d="M279.939 144.485H270.909V153.515H279.939V144.485Z" fill="#158A8C"/>
<path d="M279.939 171.576H270.909V180.606H279.939V171.576Z" fill="#158A8C"/>
<path d="M279.939 180.606H270.909V189.636H279.939V180.606Z" fill="#158A8C"/>
<path d="M279.939 198.667H270.909V207.697H279.939V198.667Z" fill="#158A8C"/>
<path d="M279.939 207.697H270.909V216.727H279.939V207.697Z" fill="#158A8C"/>
<path d="M279.939 234.788H270.909V243.818H279.939V234.788Z" fill="#158A8C"/>
<path d="M279.939 243.818H270.909V252.848H279.939V243.818Z" fill="#158A8C"/>
<path d="M279.939 252.848H270.909V261.879H279.939V252.848Z" fill="#158A8C"/>
<path d="M279.939 270.909H270.909V279.939H279.939V270.909Z" fill="#158A8C"/>
<path d="M279.939 279.939H270.909V288.97H279.939V279.939Z" fill="#158A8C"/>
<path d="M288.97 0H279.939V9.0303H288.97V0Z" fill="#158A8C"/>
<path d="M288.97 54.1819H279.939V63.2122H288.97V54.1819Z" fill="#158A8C"/>
<path d="M288.97 72.2424H279.939V81.2727H288.97V72.2424Z" fill="#158A8C"/>
<path d="M288.97 81.2727H279.939V90.303H288.97V81.2727Z" fill="#158A8C"/>
<path d="M288.97 90.303H279.939V99.3333H288.97V90.303Z" fill="#158A8C"/>
<path d="M288.97 108.364H279.939V117.394H288.97V108.364Z" fill="#158A8C"/>
<path d="M288.97 117.394H279.939V126.424H288.97V117.394Z" fill="#158A8C"/>
<path d="M288.97 135.455H279.939V144.485H288.97V135.455Z" fill="#158A8C"/>
<path d="M288.97 153.515H279.939V162.545H288.97V153.515Z" fill="#158A8C"/>
<path d="M288.97 162.545H279.939V171.576H288.97V162.545Z" fill="#158A8C"/>
<path d="M288.97 171.576H279.939V180.606H288.97V171.576Z" fill="#158A8C"/>
<path d="M288.97 180.606H279.939V189.636H288.97V180.606Z" fill="#158A8C"/>
<path d="M288.97 189.636H279.939V198.667H288.97V189.636Z" fill="#158A8C"/>
<path d="M288.97 198.667H279.939V207.697H288.97V198.667Z" fill="#158A8C"/>
<path d="M288.97 207.697H279.939V216.727H288.97V207.697Z" fill="#158A8C"/>
<path d="M288.97 252.848H279.939V261.879H288.97V252.848Z" fill="#158A8C"/>
<path d="M298 0H288.97V9.0303H298V0Z" fill="#158A8C"/>
<path d="M298 9.03027H288.97V18.0606H298V9.03027Z" fill="#158A8C"/>
<path d="M298 18.0605H288.97V27.0908H298V18.0605Z" fill="#158A8C"/>
<path d="M298 27.0908H288.97V36.1211H298V27.0908Z" fill="#158A8C"/>
<path d="M298 36.1211H288.97V45.1514H298V36.1211Z" fill="#158A8C"/>
<path d="M298 45.1516H288.97V54.1819H298V45.1516Z" fill="#158A8C"/>
<path d="M298 54.1819H288.97V63.2122H298V54.1819Z" fill="#158A8C"/>
<path d="M298 72.2424H288.97V81.2727H298V72.2424Z" fill="#158A8C"/>
<path d="M298 108.364H288.97V117.394H298V108.364Z" fill="#158A8C"/>
<path d="M298 135.455H288.97V144.485H298V135.455Z" fill="#158A8C"/>
<path d="M298 153.515H288.97V162.545H298V153.515Z" fill="#158A8C"/>
<path d="M298 171.576H288.97V180.606H298V171.576Z" fill="#158A8C"/>
<path d="M298 189.636H288.97V198.667H298V189.636Z" fill="#158A8C"/>
<path d="M298 207.697H288.97V216.727H298V207.697Z" fill="#158A8C"/>
<path d="M298 225.758H288.97V234.788H298V225.758Z" fill="#158A8C"/>
<path d="M298 252.848H288.97V261.879H298V252.848Z" fill="#158A8C"/>
<path d="M298 270.909H288.97V279.939H298V270.909Z" fill="#158A8C"/>
<path d="M298 288.97H288.97V298H298V288.97Z" fill="#158A8C"/>
</svg>
